<?xml version="1.0" encoding="UTF-8"?>
<svg xmlns="http://www.w3.org/2000/svg" width="100" height="68" viewBox="0 0 100 68" fill="none">
  <path d="M56.9222 61.4103C50.5703 63.0056 44.3237 63.7631 38.4679 63.7631C20.8673 63.7631 6.79175 56.9343 3.92343 45.5743C0.101782 30.435 17.6332 12.9789 43.0822 6.58421C49.4341 4.989 55.6806 4.23148 61.5364 4.23148C79.1371 4.23148 93.2126 11.0602 96.0809 22.4202C99.9026 37.5596 82.3712 55.0157 56.9222 61.4076V61.4103Z" fill="white"></path>
  <path d="M61.5356 4.23413C79.1363 4.23413 93.2118 11.0629 96.0801 22.4229C99.9018 37.5622 82.3704 55.0183 56.9214 61.4102C50.5695 63.0055 44.323 63.763 38.4671 63.763C20.8665 63.763 6.79095 56.9342 3.92263 45.5742C0.100976 30.4349 17.6324 12.9788 43.0814 6.5841C49.4333 4.98889 55.6798 4.23137 61.5356 4.23137M61.5356 0.847412C55.2226 0.847412 48.7349 1.67405 42.2528 3.30244C29.3606 6.53986 17.9511 12.6138 10.1276 20.4047C6.19511 24.3194 3.35451 28.4803 1.68617 32.771C-0.123501 37.4212 -0.47823 42.0078 0.630298 46.4036C2.26261 52.8702 6.92397 58.2419 14.1128 61.9411C20.739 65.3499 29.1583 67.1525 38.4644 67.1525C44.7774 67.1525 51.2651 66.3258 57.7472 64.6974C70.6394 61.46 82.049 55.386 89.8724 47.5952C93.8049 43.6804 96.6455 39.5196 98.3138 35.2288C100.124 30.5787 100.478 25.9921 99.3697 21.5963C97.7374 15.1297 93.076 9.75794 85.8872 6.05881C79.2638 2.64998 70.8417 0.847412 61.5356 0.847412Z" fill="#1800AE"></path>
  <path d="M18.5312 47.3628C26.7371 48.8668 33.4326 45.9529 33.4326 36.0719V19.5143H27.5852V35.9779C27.5852 41.7174 24.6614 43.0334 18.5312 42.0934V47.3628Z" fill="#1800AE"></path>
  <path d="M73.7953 32.4974V32.3094C76.1537 31.8394 77.6613 29.8626 77.6613 26.7579C77.6613 21.6764 73.7011 19.4205 68.1363 19.4205H60.4043V47.081C63.2338 47.175 65.2153 47.175 69.364 47.175C76.5306 47.175 79.6428 43.0363 79.6428 39.0828C79.6428 35.8841 77.6613 32.8733 73.7953 32.4974ZM66.249 24.4992C68.7016 24.3112 71.6254 24.5932 71.6254 27.2279C71.6254 29.3926 69.8323 30.5206 66.249 30.1446V24.4992ZM66.249 41.9995V35.0381C70.6804 34.6621 73.6041 35.6021 73.6041 38.4248C73.6041 41.2475 70.6804 42.3755 66.249 41.9995Z" fill="#1800AE"></path>
  <path d="M44.3707 35.884C44.3707 34.2833 47.5771 34.474 50.5009 33.6253C53.7073 32.5913 56.7253 29.8626 56.7253 25.5331C56.7253 23.2744 56.0657 21.4884 54.6496 20.0756L54.7438 19.8876C55.0265 19.9816 55.4034 19.9816 55.686 19.9816C57.5733 19.9816 58.9867 18.4777 58.9867 16.5949C58.9867 14.7122 57.5733 13.3022 55.686 13.3022C53.7988 13.3022 52.2912 14.7122 52.2912 16.5949C52.2912 17.1589 52.3854 17.6289 52.6681 18.0989L52.4796 18.2869C50.972 17.0649 48.6136 16.4982 46.5379 16.4982C41.4442 16.4982 36.2591 19.3209 36.2591 25.2483C36.2591 28.9171 38.3348 31.1758 41.3528 32.6798V32.8678C40.1278 33.4318 38.8059 34.3717 38.8059 36.1605C38.8059 37.7585 39.9366 38.6072 40.599 38.9832V39.1712C37.8692 39.738 34.8457 42.2759 34.8457 45.9446C34.8457 51.7781 40.6932 54.1308 46.5407 54.1308C52.3882 54.1308 58.2356 51.5901 58.2356 45.4746C58.2356 35.9725 44.3735 38.7952 44.3735 35.8785M46.5407 21.3944C48.7106 21.3944 50.6893 22.8984 50.6893 25.4391C50.6893 27.9798 48.7078 29.3898 46.5407 29.3898C44.3735 29.3898 42.2978 27.8858 42.2978 25.4391C42.2978 22.9924 44.3735 21.3944 46.5407 21.3944ZM46.5407 49.1489C43.3343 49.1489 40.8816 47.5482 40.8816 45.5742C40.8816 43.6002 43.3343 42.2815 46.5407 42.2815C49.9355 42.2815 52.1997 43.5034 52.1997 45.5742C52.1997 47.6449 49.9355 49.1489 46.5407 49.1489Z" fill="#FE391F"></path>
</svg>
